<svg width="18" height="18" viewBox="0 0 18 18" fill="none" xmlns="http://www.w3.org/2000/svg">
<path d="M8.99984 0.833349C8.75073 0.831514 8.50622 0.900384 8.29469 1.03196C8.08316 1.16354 7.9133 1.35242 7.80484 1.57668L5.95317 5.33002L1.80984 5.93168C1.56339 5.96719 1.33181 6.071 1.14133 6.23135C0.950845 6.3917 0.809065 6.60218 0.732047 6.83896C0.655029 7.07573 0.64585 7.32935 0.705549 7.57108C0.765249 7.8128 0.891441 8.03298 1.06984 8.20668L4.06984 11.1283L3.3615 15.255C3.31937 15.5001 3.34664 15.7522 3.44023 15.9826C3.53382 16.213 3.69 16.4127 3.89111 16.559C4.09223 16.7054 4.33027 16.7925 4.57833 16.8107C4.82639 16.8288 5.07457 16.7772 5.29484 16.6617L8.99984 14.7133V0.833349Z" fill="#FFAD33"/>
<path opacity="0.25" d="M9.00001 0.835954C9.24912 0.83404 9.50009 1.00001 9.50009 1.00001C9.50009 1.00001 10.0866 1.20807 10.195 1.44195L12.0467 5.35634L16.1901 5.98383C16.4366 6.02086 16.6682 6.12912 16.8587 6.29635C17.0492 6.46358 17.1909 6.68309 17.268 6.93003C17.345 7.17697 17.3542 7.44147 17.2945 7.69357C17.2347 7.94567 17.1086 8.1753 16.9302 8.35645L13.9301 11.4035L14.6384 15.7072C14.6806 15.9629 14.6533 16.2257 14.5597 16.466C14.4661 16.7064 14.3099 16.9146 14.1088 17.0672C13.9077 17.2198 13.6697 17.3107 13.4216 17.3296C13.1735 17.3486 12.9253 17.2947 12.7051 17.1743L9.00001 15.1423V0.835954Z" fill="black"/>
</svg>
