 <svg
                viewBox="0 0 44 44"
                fill="none"
                xmlns="http://www.w3.org/2000/svg"
              >
                <path d="M12.8333 12.8334V9.16669C12.8334 8.10497 13.1407 7.06594 13.7182 6.17504C14.2958 5.28413 15.1188 4.57943 16.088 4.146C17.0573 3.71256 18.1312 3.56892 19.1803 3.73241C20.2293 3.8959 21.2086 4.35954 22 5.06735C22.7914 4.35954 23.7707 3.8959 24.8197 3.73241C25.8688 3.56892 26.9428 3.71256 27.912 4.146C28.8812 4.57943 29.7043 5.28413 30.2818 6.17504C30.8593 7.06594 31.1667 8.10497 31.1667 9.16669V12.8334H33.9167C34.646 12.8334 35.3455 13.1231 35.8612 13.6388C36.3769 14.1545 36.6667 14.854 36.6667 15.5834V33.9259C36.6667 35.6252 35.9916 37.255 34.79 38.4566C33.5883 39.6583 31.9586 40.3334 30.2592 40.3334H14.6667C12.7218 40.3334 10.8565 39.5607 9.48123 38.1855C8.10596 36.8102 7.33334 34.9449 7.33334 33V15.5834C7.33334 14.854 7.62307 14.1545 8.1388 13.6388C8.65452 13.1231 9.354 12.8334 10.0833 12.8334H12.8333ZM24.9975 37.5834C24.2496 36.5105 23.8496 35.2337 23.8517 33.9259V15.5834H10.0833V33C10.0833 33.6019 10.2019 34.1979 10.4322 34.754C10.6626 35.3101 11.0002 35.8153 11.4258 36.2409C11.8514 36.6665 12.3566 37.0041 12.9127 37.2345C13.4688 37.4648 14.0648 37.5834 14.6667 37.5834H24.9975ZM21.0833 12.8334V9.16669C21.0833 8.43734 20.7936 7.73787 20.2779 7.22214C19.7622 6.70642 19.0627 6.41669 18.3333 6.41669C17.604 6.41669 16.9045 6.70642 16.3888 7.22214C15.8731 7.73787 15.5833 8.43734 15.5833 9.16669V12.8334H21.0833ZM23.8333 12.8334H28.4167V9.16669C28.4167 8.60062 28.2421 8.04832 27.9166 7.58519C27.5911 7.12205 27.1306 6.77065 26.598 6.57894C26.0654 6.38723 25.4866 6.36455 24.9406 6.51401C24.3946 6.66346 23.9081 6.97777 23.5473 7.41402C23.7325 7.96402 23.8333 8.55435 23.8333 9.16669V12.8334ZM26.6017 33.9259C26.6017 34.8959 26.987 35.8262 27.6729 36.5121C28.3588 37.198 29.2891 37.5834 30.2592 37.5834C31.2292 37.5834 32.1595 37.198 32.8454 36.5121C33.5313 35.8262 33.9167 34.8959 33.9167 33.9259V15.5834H26.6017V33.9259Z" />
              </svg>