<svg width="80" height="80" viewBox="0 0 80 80" fill="none" xmlns="http://www.w3.org/2000/svg">
<path opacity="0.3" d="M80 40C80 62.0914 62.0914 80 40 80C17.9086 80 0 62.0914 0 40C0 17.9086 17.9086 0 40 0C62.0914 0 80 17.9086 80 40ZM10.9071 40C10.9071 56.0675 23.9325 69.0929 40 69.0929C56.0675 69.0929 69.0929 56.0675 69.0929 40C69.0929 23.9325 56.0675 10.9071 40 10.9071C23.9325 10.9071 10.9071 23.9325 10.9071 40Z" fill="#2F2E30"/>
<circle cx="40" cy="40" r="29" fill="black"/>
<path d="M28.0992 50.5994L28.099 50.5992C27.2262 49.9485 26.4256 48.9207 25.8428 47.7591C25.26 46.5974 24.9167 45.3452 24.9167 44.2667V31.8667C24.9167 29.5075 26.6716 26.9619 28.8912 26.1353L28.8922 26.1349L37.2085 23.0184C37.2085 23.0184 37.2086 23.0183 37.2087 23.0183C37.9622 22.7367 38.9617 22.5875 39.9834 22.5875C41.0052 22.5875 42.0046 22.7367 42.7581 23.0183C42.7582 23.0183 42.7583 23.0184 42.7584 23.0184L51.0746 26.1349L51.0756 26.1353C53.2953 26.9619 55.0501 29.5075 55.0501 31.8667V44.25C55.0501 45.3372 54.7067 46.5893 54.1242 47.7484C53.5417 48.9074 52.7411 49.9314 51.8679 50.5825L51.8676 50.5827L44.701 55.9327L44.7009 55.9326L44.6948 55.9374C43.4121 56.9265 41.7241 57.4334 40.0001 57.4334C38.2775 57.4334 36.5853 56.9271 35.265 55.9487C35.2648 55.9486 35.2646 55.9484 35.2645 55.9483L28.0992 50.5994ZM37.742 24.4316L37.7413 24.4318L29.4246 27.5485L29.4239 27.5488C28.5963 27.8603 27.8551 28.5226 27.3242 29.2907C26.7931 30.0591 26.4334 30.9899 26.4334 31.8834V44.2667C26.4334 45.1612 26.744 46.1893 27.201 47.1011C27.6579 48.0127 28.2934 48.8723 29.0009 49.4007L29.001 49.4007L36.1673 54.7504C37.2293 55.5446 38.6283 55.925 40.0022 55.925C41.3762 55.925 42.7784 55.5446 43.8479 54.7517L43.8492 54.7507L51.0159 49.4007L51.0168 49.4C51.7315 48.864 52.367 48.0051 52.8223 47.0945C53.2776 46.1838 53.5834 45.1601 53.5834 44.2667V31.8667C53.5834 30.9805 53.223 30.0539 52.6926 29.2866C52.1621 28.519 51.4224 27.8541 50.5977 27.5339L50.5977 27.5339L50.5922 27.5318L42.2755 24.4152L42.2756 24.4151L42.2665 24.4119C41.6283 24.1866 40.8003 24.0833 40.0008 24.0854C39.2022 24.0876 38.3753 24.1953 37.742 24.4316Z" fill="#FAFAFA" stroke="#FAFAFA"/>
<path d="M37.413 41.0535L37.7666 41.4071L38.1201 41.0535L44.4035 34.7702C44.6915 34.4821 45.1749 34.4821 45.463 34.7702C45.7511 35.0583 45.7511 35.5417 45.463 35.8298L38.2963 42.9964C38.1451 43.1477 37.9578 43.2166 37.7666 43.2166C37.5754 43.2166 37.3881 43.1477 37.2368 42.9964L34.5535 40.3131C34.2654 40.025 34.2654 39.5416 34.5535 39.2535C34.8415 38.9655 35.3249 38.9655 35.613 39.2535L37.413 41.0535Z" fill="#FAFAFA" stroke="#FAFAFA"/>
</svg>
